<?xml version="1.0" encoding="UTF-8" standalone="no"?>
<svg
   id="Layer_1"
   data-name="Layer 1"
   viewBox="0 0 1020.04 911.42"
   version="1.1"
   sodipodi:docname="einstein.svg"
   inkscape:version="1.1.1 (3bf5ae0d25, 2021-09-20, custom)"
   xmlns:inkscape="http://www.inkscape.org/namespaces/inkscape"
   xmlns:sodipodi="http://sodipodi.sourceforge.net/DTD/sodipodi-0.dtd"
   xmlns="http://www.w3.org/2000/svg"
   xmlns:svg="http://www.w3.org/2000/svg"
   xmlns:rdf="http://www.w3.org/1999/02/22-rdf-syntax-ns#"
   xmlns:cc="http://creativecommons.org/ns#"
   xmlns:dc="http://purl.org/dc/elements/1.1/">
  <defs
     id="defs157" />
  <sodipodi:namedview
     id="namedview155"
     pagecolor="#ffffff"
     bordercolor="#666666"
     borderopacity="1.0"
     inkscape:pageshadow="2"
     inkscape:pageopacity="0.0"
     inkscape:pagecheckerboard="0"
     showgrid="false"
     inkscape:zoom="0.4460236"
     inkscape:cx="57.171862"
     inkscape:cy="843.00471"
     inkscape:window-width="1920"
     inkscape:window-height="1052"
     inkscape:window-x="0"
     inkscape:window-y="28"
     inkscape:window-maximized="1"
     inkscape:current-layer="Layer_1" />
  <title
     id="title2">en2.1</title>
  <path
     d="M18,740.29l1.35,2.94a6.89,6.89,0,0,0,9,3.33l36-15.67a6.54,6.54,0,0,0,3.42-8.71l-1.35-2.94a6.89,6.89,0,0,0-9-3.33l-36,15.67A6.53,6.53,0,0,0,18,740.29Z"
     transform="translate(-16.94 -10.51)"
     fill="#efcfbf"
     stroke="#231f20"
     stroke-miterlimit="10"
     id="path4" />
  <path
     d="M73.73,739h0a6.93,6.93,0,0,0-9.52,1.15L39.62,770.94a6.49,6.49,0,0,0,1.18,9.25h0A6.93,6.93,0,0,0,50.32,779l24.6-30.74A6.49,6.49,0,0,0,73.73,739Z"
     transform="translate(-16.94 -10.51)"
     fill="#efcfbf"
     stroke="#231f20"
     stroke-miterlimit="10"
     id="path6" />
  <path
     d="M75.53,779l3.13,1a6.84,6.84,0,0,0,8.6-4.12l14.81-42.42a6.57,6.57,0,0,0-4.24-8.36l-3.13-1a6.85,6.85,0,0,0-8.6,4.13L71.29,770.66A6.57,6.57,0,0,0,75.53,779Z"
     transform="translate(-16.94 -10.51)"
     fill="#efcfbf"
     stroke="#231f20"
     stroke-miterlimit="10"
     id="path8" />
  <circle
     cx="257.96"
     cy="583.78"
     r="39.04"
     fill="#f9f4f4"
     stroke="#231f20"
     stroke-miterlimit="10"
     id="circle10" />
  <rect
     x="228.83"
     y="585.94"
     width="31.63"
     height="105.62"
     rx="12"
     transform="translate(386.23 -37.13) rotate(34.36)"
     fill="#f9f4f4"
     stroke="#231f20"
     stroke-miterlimit="10"
     id="rect12" />
  <rect
     x="137.54"
     y="638.18"
     width="34.8"
     height="137.96"
     rx="12"
     transform="translate(773.95 350.74) rotate(73.81)"
     fill="#efcfbf"
     stroke="#231f20"
     stroke-miterlimit="10"
     id="rect14" />
  <circle
     cx="199.07"
     cy="668.33"
     r="24.25"
     fill="#f9f4f4"
     stroke="#231f20"
     stroke-miterlimit="10"
     id="circle16" />
  <ellipse
     cx="69.74"
     cy="713.38"
     rx="31.67"
     ry="30.8"
     fill="#efcfbf"
     stroke="#231f20"
     stroke-miterlimit="10"
     id="ellipse18" />
  <path
     d="M91.05,717.79l2.43-2.36a11,11,0,0,0,0-15.83L67.62,674.46a11.75,11.75,0,0,0-16.27,0l-2.43,2.36a11,11,0,0,0,0,15.82l25.86,25.15A11.77,11.77,0,0,0,91.05,717.79Z"
     transform="translate(-16.94 -10.51)"
     fill="#efcfbf"
     stroke="#231f20"
     stroke-miterlimit="10"
     id="path20" />
  <rect
     x="273.8811"
     y="763.79114"
     width="47.277142"
     height="299.89853"
     rx="11.958805"
     fill="#c2b59b"
     stroke="#231f20"
     stroke-miterlimit="10"
     id="rect22"
     style="stroke-width:1.46224" />
  <path
     d="m 241.29,1063.0463 c 0,13.12 35.43,5.22 53.08,5.22 17.65,0 31.95,-2 31.95,-15.12 0,-13.12 -52.11,-31 -69.75,-31 -17.64,0 -15.28,27.78 -15.28,40.9 z"
     fill="#a97c50"
     stroke="#231f20"
     stroke-miterlimit="10"
     id="path24" />
  <path
     d="M416.48,521.5c-5.34,11.86-21.31,21-41.3,23.52a86.29,86.29,0,0,1-10.92.68c-18.17,0-34.24-5.44-44.06-13.78A30.11,30.11,0,0,1,312,521.5c2.64-1,5.37-1.92,8.17-2.77,1.13-.35,2.27-.69,3.42-1v1.45l.26-.07,2.13-.58,2.07-.52,1.88-.44,1.81-.41c1.3-.28,2.61-.55,3.93-.8V502.7c0-7.14,5.4-13,12-13h44.23c6.6,0,12,5.84,12,13v15h0l1,.22.34.08,2,.52,2.39.64.6.17c.77.25,1.54.5,2.29.76C413.89,520.55,415.2,521,416.48,521.5Z"
     transform="translate(-16.94 -10.51)"
     fill="#efcfbf"
     stroke="#231f20"
     stroke-miterlimit="10"
     id="path26" />
  <path
     d="m 376.18813,507.09153 v 0.25493 l 0.30187,0.10197 1.77678,0.6628 2.12331,0.81577 0.53299,0.21669 q -2.30983,-1.0707 -4.73515,-2.05216 z"
     fill="#f9f4f4"
     stroke="#231f20"
     stroke-miterlimit="10"
     id="path28"
     style="stroke-width:1.06413" />
  <path
     d="M398.26,519.34c.77.25,1.54.5,2.29.76V520C399.79,519.78,399,519.56,398.26,519.34Z"
     transform="translate(-16.94 -10.51)"
     fill="#f9f4f4"
     stroke="#231f20"
     stroke-miterlimit="10"
     id="path30" />
  <rect
     x="996.7"
     y="734"
     width="14.04"
     height="38.39"
     rx="7.02"
     transform="translate(2221.94 964.35) rotate(153.29)"
     fill="#efcfbf"
     stroke="#231f20"
     stroke-miterlimit="10"
     id="rect32" />
  <rect
     x="974.55"
     y="736.07"
     width="14.04"
     height="35.28"
     rx="7.02"
     transform="translate(1946.2 1496.91) rotate(180)"
     fill="#efcfbf"
     stroke="#231f20"
     stroke-miterlimit="10"
     id="rect34" />
  <rect
     x="1012.84"
     y="713.25"
     width="14.04"
     height="38.39"
     rx="7.02"
     transform="translate(2207.25 366.73) rotate(127.88)"
     fill="#efcfbf"
     stroke="#231f20"
     stroke-miterlimit="10"
     id="rect36" />
  <path
     d="M588.93,287a327,327,0,0,1-2.88,104.4,42.4,42.4,0,0,0-33.12-22.49,184.06,184.06,0,0,1-15.12,70,186,186,0,0,1-59.76,74.88,263.63,263.63,0,0,0-12.67-99.14A75,75,0,0,0,468,389.43a114.49,114.49,0,0,1,.6-17.46c1.54-17.31,4.87-40.62,4.14-60-.35-9.58-1.7-18.19-4.74-24.62-19.5-41.14-69.39-47.52-92.88-47.52-20.64,0-74.15,8.35-97.2,43.2-5.54,8.38-8.67,18.85-10.32,30.09-2.72,18.47-1.46,39-.38,55.78.51,7.88,1,14.92,1,20.51,0,13.83,4,28.34,10.66,42.31a238.19,238.19,0,0,0-49.9,90.71,248.15,248.15,0,0,1-20.88-158.4,63.93,63.93,0,0,0-33.84-18.72,62.36,62.36,0,0,0-26.64.72c-1.13-13-5.7-79.72,40.32-121.68a114.72,114.72,0,0,1,29.52-19.44,147.38,147.38,0,0,0-61.2-14.4c2.11-4,18.91-34.45,54-40.32,20.51-3.43,36.95,3.26,43.68,6.48A384,384,0,0,1,329,16.29a373.69,373.69,0,0,0,36.72,62.64,373,373,0,0,0,33.84,40.32,340.13,340.13,0,0,1,65.52-108C478.16,25.72,499.7,53.83,509,94.77a181.11,181.11,0,0,1,4.32,47.52,191.51,191.51,0,0,0,41.76-24.48,191.3,191.3,0,0,0,34.56-34.56,259.37,259.37,0,0,1-15.12,142.56A323.62,323.62,0,0,1,588.93,287Z"
     transform="translate(-16.94 -10.51)"
     fill="#ededed"
     stroke="#231f20"
     stroke-miterlimit="10"
     id="path38" />
  <path
     d="M329.72,243.92c-6.29-8.94-9.52-19.74-10.89-30.59s-1-21.83-.55-32.75q.27-7.61.56-15.21"
     transform="translate(-16.94 -10.51)"
     fill="#ededed"
     id="path40" />
  <path
     d="M330.26,243.61c-15.48-22.82-11.77-52.18-10.79-78.24,0-.81-1.22-.81-1.25,0-1,26.28-4.66,55.85,11,78.87.45.66,1.54,0,1.08-.63Z"
     transform="translate(-16.94 -10.51)"
     fill="#231f20"
     id="path42" />
  <path
     d="M450,259.39c11.11,2.69,22.15-3.89,31.65-10.24,28.23-18.89,56.93-39.4,73.88-68.84"
     transform="translate(-16.94 -10.51)"
     fill="#ededed"
     id="path44" />
  <path
     d="M449.88,260c11.31,2.28,21.5-3.33,30.69-9.35,9.92-6.5,19.71-13.29,29.15-20.49,18.12-13.83,34.8-29.71,46.39-49.53A.63.63,0,0,0,555,180c-11.07,18.93-26.83,34.26-44,47.62-8.48,6.58-17.3,12.71-26.2,18.7-10.2,6.87-21.62,15.08-34.58,12.47-.79-.16-1.12,1.05-.33,1.21Z"
     transform="translate(-16.94 -10.51)"
     fill="#231f20"
     id="path46" />
  <path
     d="M475.28,282.94a191.75,191.75,0,0,0,71.54-55.39"
     transform="translate(-16.94 -10.51)"
     fill="#ededed"
     id="path48" />
  <path
     d="M475.6,283.48A194.64,194.64,0,0,0,547.26,228c.5-.62-.38-1.51-.89-.89A193.83,193.83,0,0,1,475,282.4c-.74.34-.1,1.41.63,1.08Z"
     transform="translate(-16.94 -10.51)"
     fill="#231f20"
     id="path50" />
  <path
     d="M468.67,389.51a70.86,70.86,0,0,1,61.94,54"
     transform="translate(-16.94 -10.51)"
     fill="#ededed"
     id="path52" />
  <path
     d="M468.67,390.13A71.3,71.3,0,0,1,530,443.64a.62.62,0,0,0,1.2-.33,72.56,72.56,0,0,0-62.54-54.43c-.8-.08-.8,1.17,0,1.25Z"
     transform="translate(-16.94 -10.51)"
     fill="#231f20"
     id="path54" />
  <path
     d="M472.81,379.49a162.28,162.28,0,0,1,109.26-51.75"
     transform="translate(-16.94 -10.51)"
     fill="#ededed"
     id="path56" />
  <path
     d="M473.26,379.94a162.63,162.63,0,0,1,108.81-51.58c.8-.05.81-1.3,0-1.25a164,164,0,0,0-109.7,51.94c-.54.59.34,1.48.89.89Z"
     transform="translate(-16.94 -10.51)"
     fill="#231f20"
     id="path58" />
  <path
     d="M270.64,417.92A49.12,49.12,0,0,0,241.79,449"
     transform="translate(-16.94 -10.51)"
     fill="#ededed"
     id="path60" />
  <path
     d="M270.47,417.32a50.47,50.47,0,0,0-29.28,31.5c-.24.77,1,1.1,1.21.33a49.16,49.16,0,0,1,28.4-30.63c.74-.3.42-1.51-.33-1.2Z"
     transform="translate(-16.94 -10.51)"
     fill="#231f20"
     id="path62" />
  <path
     d="M261.23,390.86a57.86,57.86,0,0,0-43.45,36.43"
     transform="translate(-16.94 -10.51)"
     fill="#ededed"
     id="path64" />
  <path
     d="M261.07,390.26a59,59,0,0,0-43.89,36.86c-.28.75.92,1.08,1.21.33a57.7,57.7,0,0,1,43-36c.79-.15.46-1.36-.33-1.21Z"
     transform="translate(-16.94 -10.51)"
     fill="#231f20"
     id="path66" />
  <path
     d="M264.28,302.11c-11.4-15.7-21-32.86-26.79-51.4s-7.48-38.54-3.23-57.48"
     transform="translate(-16.94 -10.51)"
     fill="#ededed"
     id="path68" />
  <path
     d="M264.82,301.8c-22.53-31.26-38.32-69.38-29.95-108.41.16-.78-1-1.12-1.21-.33-8.43,39.34,7.35,77.83,30.08,109.37.47.64,1.55,0,1.08-.63Z"
     transform="translate(-16.94 -10.51)"
     fill="#231f20"
     id="path70" />
  <path
     d="M421.85,240.19A192.86,192.86,0,0,0,452.77,120.7"
     transform="translate(-16.94 -10.51)"
     fill="#ededed"
     id="path72" />
  <path
     d="M422.39,240.51a195.06,195.06,0,0,0,31-119.81c-.06-.8-1.31-.8-1.25,0a193.86,193.86,0,0,1-30.84,119.17c-.44.68.65,1.31,1.08.64Z"
     transform="translate(-16.94 -10.51)"
     fill="#231f20"
     id="path74" />
  <path
     d="M291.92,260.89a107.86,107.86,0,0,1-13.65-68.24"
     transform="translate(-16.94 -10.51)"
     fill="#ededed"
     id="path76" />
  <path
     d="M292.46,260.58a108.89,108.89,0,0,1-13.57-67.93c.1-.8-1.15-.79-1.25,0a110,110,0,0,0,13.74,68.56.63.63,0,0,0,1.08-.63Z"
     transform="translate(-16.94 -10.51)"
     fill="#231f20"
     id="path78" />
  <path
     d="M471.08,371.4a112.18,112.18,0,0,0-.81,17.45,73.43,73.43,0,0,1-2.93,25.21c-13.3,47-66.8,94.44-99.3,94.08-28.72-.33-71.8-37.47-91.46-79.14C270,415,266,400.4,266.17,386.57c.06-5.59-.34-12.63-.77-20.52-.92-16.77-2-37.33,1-55.77,1.81-11.22,5.12-21.66,10.88-30C301.22,245.72,356,238,377.06,238.22c24,.27,74.89,7.22,94.35,48.58,3,6.46,4.32,15.09,4.57,24.67C476.51,330.84,472.84,354.11,471.08,371.4Z"
     transform="translate(-16.94 -10.51)"
     fill="#efcfbf"
     stroke="#231f20"
     stroke-miterlimit="10"
     id="path80" />
  <path
     d="M401.56,446.49v11.64a11.76,11.76,0,0,1-.15,1.89,6.82,6.82,0,0,0-3.21-.81h-110c0-.35,0-.72,0-1.08V446.49a12,12,0,0,1,12-12h89.4A12,12,0,0,1,401.56,446.49Z"
     transform="translate(-16.94 -10.51)"
     fill="#ededed"
     stroke="#231f20"
     stroke-miterlimit="10"
     id="path82" />
  <path
     d="M359.88,413.36a10.21,10.21,0,0,0-1.68.13V367c0-7.54-5.53-13.71-12.27-13.71a11.68,11.68,0,0,0-8.67,4,14.56,14.56,0,0,0-3.6,9.69V413.5a10.6,10.6,0,0,0-1.78-.14c-7.58,0-13.73,6.87-13.73,15.34S324.3,444,331.88,444a12.52,12.52,0,0,0,6.33-1.73,14.28,14.28,0,0,1-4.55-10.62v-1.36A14.28,14.28,0,0,0,338.21,441a11.19,11.19,0,0,0,15.4,0,14.29,14.29,0,0,0,4.59-10.66v1.36a14.29,14.29,0,0,1-4.59,10.66,12.47,12.47,0,0,0,6.27,1.69c7.58,0,13.73-6.87,13.73-15.34S367.46,413.36,359.88,413.36Z"
     transform="translate(-16.94 -10.51)"
     fill="#eba985"
     stroke="#231f20"
     stroke-miterlimit="10"
     id="path84" />
  <path
     d="M334.35,344.72a28.92,28.92,0,1,1-28.92-28.92c12.83,0,19.12,5.26,24.27,13.2A28.76,28.76,0,0,1,334.35,344.72Z"
     transform="translate(-16.94 -10.51)"
     fill="#eba985"
     stroke="#231f20"
     stroke-miterlimit="10"
     id="path86" />
  <path
     d="M334.35,344.72a28.75,28.75,0,0,1-5.83,17.4H282.34A28.89,28.89,0,0,1,281.16,329H329.7A28.76,28.76,0,0,1,334.35,344.72Z"
     transform="translate(-16.94 -10.51)"
     fill="#fff"
     stroke="#231f20"
     stroke-miterlimit="10"
     id="path88" />
  <path
     d="M436,344.72a28.92,28.92,0,1,1-28.92-28.92c12.84,0,19.12,5.26,24.27,13.2A28.76,28.76,0,0,1,436,344.72Z"
     transform="translate(-16.94 -10.51)"
     fill="#eba985"
     stroke="#231f20"
     stroke-miterlimit="10"
     id="path90" />
  <path
     d="M436,344.72a28.75,28.75,0,0,1-5.83,17.4H384A28.89,28.89,0,0,1,382.8,329h48.54A28.76,28.76,0,0,1,436,344.72Z"
     transform="translate(-16.94 -10.51)"
     fill="#fff"
     stroke="#231f20"
     stroke-miterlimit="10"
     id="path92" />
  <circle
     cx="288.49"
     cy="334.21"
     r="12.72"
     stroke="#231f20"
     stroke-miterlimit="10"
     id="circle94" />
  <circle
     cx="292.93"
     cy="328.57"
     r="4.44"
     fill="#fff"
     stroke="#231f20"
     stroke-miterlimit="10"
     id="circle96" />
  <circle
     cx="390.13"
     cy="335.05"
     r="12.72"
     stroke="#231f20"
     stroke-miterlimit="10"
     id="circle98" />
  <circle
     cx="394.57"
     cy="329.41"
     r="4.44"
     fill="#fff"
     stroke="#231f20"
     stroke-miterlimit="10"
     id="circle100" />
  <path
     d="M498.52,339.16a104.21,104.21,0,0,1-30.24,47.28c1.54-17.31,4.87-40.62,4.14-60a26.71,26.71,0,0,1,2.58-1.94,26.37,26.37,0,0,1,14.4-4.32,25.1,25.1,0,0,1,9.12,19Z"
     transform="translate(-16.94 -10.51)"
     fill="#efcfbf"
     stroke="#231f20"
     stroke-miterlimit="10"
     id="path102" />
  <path
     d="M326.83,305.84a8,8,0,0,0,2.88-9,80.13,80.13,0,0,0-49,10.8,100.44,100.44,0,0,1,46.08-1.8Z"
     transform="translate(-16.94 -10.51)"
     fill="#ededed"
     stroke="#231f20"
     stroke-miterlimit="10"
     id="path104" />
  <path
     d="M385.67,305.84a8,8,0,0,1-2.88-9,80.13,80.13,0,0,1,49,10.8,100.44,100.44,0,0,0-46.08-1.8Z"
     transform="translate(-16.94 -10.51)"
     fill="#ededed"
     stroke="#231f20"
     stroke-miterlimit="10"
     id="path106" />
  <circle
     cx="972.79"
     cy="712.34"
     r="25.41"
     fill="#efcfbf"
     stroke="#231f20"
     stroke-miterlimit="10"
     id="circle108" />
  <rect
     x="982.05"
     y="676.92"
     width="23.83"
     height="41.04"
     rx="11.91"
     transform="translate(1403.97 1823.64) rotate(-145.64)"
     fill="#efcfbf"
     stroke="#231f20"
     stroke-miterlimit="10"
     id="rect110" />
  <rect
     x="360.79172"
     y="763.79114"
     width="47.277142"
     height="299.89853"
     rx="11.958805"
     fill="#c2b59b"
     stroke="#231f20"
     stroke-miterlimit="10"
     id="rect112"
     style="stroke-width:1.46224" />
  <path
     d="m 322.71,1063.0463 c 0,13.12 35.43,5.22 53.08,5.22 17.65,0 31.95,-2 31.95,-15.12 0,-13.12 -52.11,-31 -69.75,-31 -17.64,0 -15.28,27.78 -15.28,40.9 z"
     fill="#a97c50"
     stroke="#231f20"
     stroke-miterlimit="10"
     id="path114" />
  <ellipse
     cx="957.3"
     cy="828.97"
     rx="35.1"
     ry="27.85"
     fill="#efcfbf"
     stroke="#231f20"
     stroke-miterlimit="10"
     id="ellipse116" />
  <rect
     x="983.75"
     y="811.43"
     width="14.04"
     height="38.39"
     rx="7.02"
     transform="translate(1766.74 -201.09) rotate(87.85)"
     fill="#efcfbf"
     stroke="#231f20"
     stroke-miterlimit="10"
     id="rect118" />
  <rect
     x="980.57"
     y="820.55"
     width="14.04"
     height="44.77"
     rx="7.02"
     transform="matrix(0.04, 1, -1, 0.04, 1775.97, -186.06)"
     fill="#efcfbf"
     stroke="#231f20"
     stroke-miterlimit="10"
     id="rect120" />
  <rect
     x="983.75"
     y="837.13"
     width="14.04"
     height="35.28"
     rx="7.02"
     transform="translate(119.06 1835.04) rotate(-90)"
     fill="#efcfbf"
     stroke="#231f20"
     stroke-miterlimit="10"
     id="rect122" />
  <rect
     x="950.93"
     y="791.1"
     width="23.83"
     height="41.04"
     rx="11.91"
     transform="translate(524.08 1987.65) rotate(-110.56)"
     fill="#efcfbf"
     stroke="#231f20"
     stroke-miterlimit="10"
     id="rect124" />
  <text
     transform="translate(956.19 654.58)"
     font-size="12"
     font-family="MyriadPro-Regular, Myriad Pro"
     id="text126">open hand</text>
  <text
     transform="translate(922.82 868.33)"
     font-size="12"
     font-family="MyriadPro-Regular, Myriad Pro"
     id="text128">closed hand</text>
  <path
     d="M462.54,769.77c0,30-43.68,54.36-97.55,54.36s-97.56-24.33-97.56-54.36a29.72,29.72,0,0,1,.33-4.43c2.91,9.4,25.22,17.36,56.43,21.12a356.86,356.86,0,0,0,81.6,0c31.19-3.76,53.49-11.72,56.42-21.1A28.1,28.1,0,0,1,462.54,769.77Z"
     transform="translate(-16.94 -10.51)"
     fill="#c2b59b"
     stroke="#231f20"
     stroke-miterlimit="10"
     id="path130" />
  <path
     d="M468.42,763.26c-3,8.7-24.78,16.17-55.85,20.21v.91c-11.52,1.24-24.13,2-37.39,2.26q-4.23.08-8.53.08a434.35,434.35,0,0,1-45.92-2.34v-.32l-.53-.06c-33.31-3.9-56.9-11.65-60.09-20.73h0a29.61,29.61,0,0,1,2.44-7.85h0a15.89,15.89,0,0,1,1.19-1.09V572.88c0-21.53,19.22-40.47,48.29-51.38a30.11,30.11,0,0,0,8.17,10.42c9.82,8.34,25.89,13.78,44.06,13.78a86.29,86.29,0,0,0,10.92-.68c20-2.48,36-11.66,41.3-23.52,29.07,10.92,48.29,29.84,48.29,51.38V754.29c.43.36.83.72,1.19,1.08A29.68,29.68,0,0,1,468.42,763.26Z"
     transform="translate(-16.94 -10.51)"
     fill="#f9f4f4"
     stroke="#231f20"
     stroke-miterlimit="10"
     id="path132" />
  <path
     d="M375.18,545a916.93,916.93,0,0,0,0,241.62q-4.23.08-8.53.08a434.35,434.35,0,0,1-45.92-2.34v-.32l-.53-.06a900.33,900.33,0,0,1,0-252.08,72,72,0,0,0,18.9,10A73.74,73.74,0,0,0,375.18,545Z"
     transform="translate(-16.94 -10.51)"
     fill="#c2b59b"
     stroke="#231f20"
     stroke-miterlimit="10"
     id="path134" />
  <path
     d="M166.28,745.43l1.35,3a6.88,6.88,0,0,0,9,3.33l36-15.67a6.54,6.54,0,0,0,3.42-8.71l-1.35-2.94a6.89,6.89,0,0,0-9-3.33l-36,15.66A6.53,6.53,0,0,0,166.28,745.43Z"
     transform="translate(-16.94 -10.51)"
     fill="#efcfbf"
     stroke="#231f20"
     stroke-miterlimit="10"
     id="path136" />
  <path
     d="M222,744.19h0a6.93,6.93,0,0,0-9.52,1.15l-24.6,30.74a6.5,6.5,0,0,0,1.19,9.26h0a7,7,0,0,0,9.52-1.16l24.6-30.74A6.49,6.49,0,0,0,222,744.19Z"
     transform="translate(-16.94 -10.51)"
     fill="#efcfbf"
     stroke="#231f20"
     stroke-miterlimit="10"
     id="path138" />
  <path
     d="M223.78,784.17l3.13,1a6.85,6.85,0,0,0,8.6-4.12l14.81-42.42a6.56,6.56,0,0,0-4.24-8.36l-3.13-1a6.85,6.85,0,0,0-8.6,4.13L219.54,775.8A6.58,6.58,0,0,0,223.78,784.17Z"
     transform="translate(-16.94 -10.51)"
     fill="#efcfbf"
     stroke="#231f20"
     stroke-miterlimit="10"
     id="path140" />
  <circle
     cx="406.21"
     cy="588.93"
     r="39.04"
     fill="#f9f4f4"
     stroke="#231f20"
     stroke-miterlimit="10"
     id="circle142" />
  <rect
     x="377.08"
     y="591.09"
     width="31.63"
     height="105.62"
     rx="12"
     transform="translate(415 -119.9) rotate(34.36)"
     fill="#f9f4f4"
     stroke="#231f20"
     stroke-miterlimit="10"
     id="rect144" />
  <rect
     x="285.79"
     y="643.33"
     width="34.8"
     height="137.96"
     rx="12"
     transform="translate(885.81 212.08) rotate(73.81)"
     fill="#efcfbf"
     stroke="#231f20"
     stroke-miterlimit="10"
     id="rect146" />
  <circle
     cx="347.32"
     cy="673.48"
     r="24.25"
     fill="#f9f4f4"
     stroke="#231f20"
     stroke-miterlimit="10"
     id="circle148" />
  <ellipse
     cx="217.99"
     cy="718.53"
     rx="31.67"
     ry="30.8"
     fill="#efcfbf"
     stroke="#231f20"
     stroke-miterlimit="10"
     id="ellipse150" />
  <path
     d="M239.3,722.94l2.43-2.36a11,11,0,0,0,0-15.83L215.87,679.6a11.77,11.77,0,0,0-16.27,0L197.17,682a11,11,0,0,0,0,15.82L223,722.94A11.77,11.77,0,0,0,239.3,722.94Z"
     transform="translate(-16.94 -10.51)"
     fill="#efcfbf"
     stroke="#231f20"
     stroke-miterlimit="10"
     id="path152" />
  <metadata
     id="metadata974">
    <rdf:RDF>
      <cc:Work
         rdf:about="">
        <dc:title>en2.1</dc:title>
      </cc:Work>
    </rdf:RDF>
  </metadata>
</svg>
